<svg version="1.1" id="Layer_1" xmlns="http://www.w3.org/2000/svg" xmlns:xlink="http://www.w3.org/1999/xlink" x="0px" y="0px"
	 width="100%" viewBox="0 0 1024 1024" enable-background="new 0 0 1024 1024" xml:space="preserve">
<path fill="#FFFFFF" opacity="1.000000" stroke="none" 
	d="
M592.000000,1025.000000 
	C394.666656,1025.000000 197.833328,1025.000000 1.000000,1025.000000 
	C1.000000,683.666687 1.000000,342.333344 1.000000,1.000000 
	C342.333344,1.000000 683.666687,1.000000 1025.000000,1.000000 
	C1025.000000,342.333344 1025.000000,683.666687 1025.000000,1025.000000 
	C880.833313,1025.000000 736.666687,1025.000000 592.000000,1025.000000 
M463.161194,290.187653 
	C463.161194,290.187653 463.177551,290.227386 462.667175,289.840759 
	C462.229889,288.918243 461.792603,287.995728 461.224152,286.148621 
	C461.197815,284.315918 460.932800,282.448761 461.191284,280.657135 
	C461.878693,275.892853 459.833313,273.005035 455.793823,270.597778 
	C450.224915,267.279114 445.028778,263.337769 439.646210,259.702759 
	C433.247955,255.381805 426.821381,251.102829 419.646423,246.296066 
	C419.646423,253.756195 419.743744,260.201508 419.605316,266.641754 
	C419.536163,269.859497 420.849579,271.769226 423.618256,273.387299 
	C428.068420,275.988129 432.237946,279.068024 436.535126,281.931854 
	C443.309082,286.446259 443.894196,290.108948 438.823761,296.750488 
	C437.919952,297.934357 436.846619,298.988708 435.049316,300.099304 
	C430.111359,299.361908 425.173370,298.624512 419.839874,297.312592 
	C417.079315,294.938904 413.798248,292.960815 411.643829,290.126434 
	C399.014282,273.510834 391.615784,254.940735 391.924438,233.777603 
	C392.025848,226.826553 392.708801,219.400162 399.601410,215.930450 
	C406.846863,212.283066 413.811829,215.638153 419.274506,220.633530 
	C425.957428,226.744797 431.947540,233.613632 438.604614,240.537003 
	C441.927734,238.247299 445.985962,235.451096 450.762695,232.159821 
	C446.519135,226.061783 442.897949,220.085953 438.520203,214.728317 
	C429.482880,203.668106 419.362030,193.829285 405.082489,189.703705 
	C391.124298,185.670944 379.570465,191.461777 375.033203,205.192703 
	C373.489624,209.863937 372.448547,214.942764 372.434875,219.838852 
	C372.345276,251.902985 383.828918,279.899780 402.788055,305.583710 
	C394.410065,309.698517 390.678741,317.053680 388.929657,325.698792 
	C385.505585,342.622925 387.304413,359.420013 390.613434,376.105103 
	C392.476440,385.498627 394.877899,394.785309 396.249359,403.977386 
	C382.992432,401.927307 370.515869,397.728882 358.562744,391.524200 
	C350.873749,387.533020 342.430023,387.517548 334.353149,390.883667 
	C326.687897,394.078247 319.046722,397.405670 311.675537,401.217194 
	C285.579803,414.710815 275.419098,433.664398 279.147125,462.904968 
	C281.352386,480.201447 287.856873,496.018890 298.979889,509.611267 
	C302.505859,513.919983 306.804016,517.691589 312.917236,518.753052 
	C316.003021,523.328308 318.409332,528.634766 322.346649,532.293762 
	C327.268982,536.868164 333.450317,540.087891 339.510376,544.405029 
	C343.339020,546.964783 347.167664,549.524475 351.224915,552.705688 
	C353.889526,554.780273 356.554138,556.854797 359.060028,559.654236 
	C356.019226,565.764587 352.978424,571.874878 349.250519,577.916565 
	C335.291077,568.486816 321.331604,559.057129 305.992950,548.695740 
	C305.992950,557.924133 305.992950,565.455994 305.987030,573.927734 
	C305.993469,585.570618 306.115662,597.215271 305.944000,608.855530 
	C305.883423,612.965881 307.876221,614.463806 311.418732,613.870361 
	C320.487030,612.351013 329.505310,610.533447 338.668121,609.665649 
	C338.665405,624.096985 338.662689,638.528259 338.019379,652.980774 
	C337.592316,653.028320 337.165283,653.075806 336.083832,652.956848 
	C332.800568,650.911499 329.517273,648.866150 325.848236,646.258728 
	C319.479309,642.171509 313.110413,638.084290 305.815521,633.402771 
	C305.815521,638.873413 305.892792,643.280457 305.799164,647.683777 
	C305.612610,656.455139 305.332214,665.224487 304.327209,674.006531 
	C301.682098,675.270691 298.947998,676.378296 296.405914,677.823547 
	C275.253876,689.849915 254.137222,701.938477 232.394028,714.297424 
	C222.129486,719.671326 224.055252,731.587585 232.599350,737.011536 
	C252.608917,749.714050 272.135010,763.182922 291.766815,776.474548 
	C313.605255,791.260071 335.279358,806.288696 357.141205,821.039246 
	C388.356049,842.100342 419.775726,862.858887 450.920837,884.021851 
	C476.161438,901.172791 501.161194,918.679382 526.199951,936.125488 
	C540.620422,946.173157 554.849060,956.496277 569.274902,966.536133 
	C577.400269,972.191040 585.750854,977.522339 594.388306,983.544434 
	C601.043274,987.906372 607.657654,992.331970 614.364746,996.612183 
	C620.982361,1000.835205 628.168274,1001.724670 635.226074,998.318237 
	C646.885803,992.690735 658.285217,986.525208 669.812439,980.621582 
	C686.469543,972.090637 703.227417,963.751953 719.789368,955.040527 
	C744.627075,941.976257 769.297058,928.593384 794.108337,915.478271 
	C806.697266,908.823792 819.251038,902.047302 832.188232,896.129456 
	C839.072083,892.980652 841.390381,888.573792 841.105835,881.375977 
	C840.692993,870.932251 841.000000,860.460083 841.000061,849.074341 
	C841.629333,841.352478 840.986206,834.383667 833.684631,829.297363 
	C801.294495,806.734009 769.099060,783.891357 736.772644,761.236145 
	C701.314270,736.386047 665.799927,711.615845 630.264343,686.876221 
	C628.431702,685.600403 626.170776,684.939819 623.911621,683.074463 
	C623.869690,638.996643 623.864563,594.918640 623.671875,550.841492 
	C623.662720,548.742065 622.584717,545.840454 621.002136,544.683716 
	C609.461975,536.248901 597.676392,528.149170 585.931702,519.996155 
	C584.753540,519.178284 583.332275,518.710693 581.843140,517.410339 
	C581.110779,516.737610 580.443604,515.971863 579.636292,515.406006 
	C566.173767,505.969086 552.753113,496.470520 539.194275,487.173615 
	C531.566223,481.943298 523.703735,477.054932 515.740112,471.094208 
	C516.224182,450.013794 513.999939,429.181396 507.462402,409.158875 
	C502.225189,393.118866 495.462708,377.576843 490.175385,361.934662 
	C495.359436,363.310394 499.148224,361.137329 501.964294,357.021545 
	C503.796661,354.343475 505.284882,351.429993 507.091553,349.441010 
	C508.252167,352.973358 509.412781,356.505676 510.632324,360.739929 
	C514.911194,374.550690 521.831177,386.634979 533.548462,395.532745 
	C543.932373,403.418060 553.633484,400.975983 559.123047,389.203186 
	C559.886230,387.566498 560.897522,386.045502 561.903137,385.417908 
	C564.541077,400.872833 570.014954,415.124817 580.417175,427.066467 
	C585.246216,432.610138 590.858032,437.279572 599.580750,437.505829 
	C606.014343,436.907043 610.110413,433.074860 612.581848,427.508575 
	C614.373169,423.473877 615.559692,419.170654 617.524841,415.692627 
	C620.935303,424.854126 623.768738,434.286621 627.910156,443.104797 
	C632.524048,452.928864 639.181458,456.427246 647.536255,454.503601 
	C646.594421,458.537781 646.182800,462.379517 644.776794,465.814209 
	C642.881104,470.445221 639.584900,470.967529 636.368835,467.227173 
	C634.130371,464.623718 632.342896,461.515778 630.887878,458.385010 
	C629.081787,454.498901 627.826721,450.356628 626.161682,445.860596 
	C623.600220,446.617523 621.286072,447.496490 618.891541,447.965118 
	C614.869507,448.752258 614.074036,450.956696 615.693909,454.401184 
	C619.361755,462.200378 622.654846,470.214905 626.885498,477.697998 
	C630.282410,483.706421 635.524963,488.254639 642.193726,490.758728 
	C647.783936,492.857819 651.685486,491.731323 656.400024,486.534607 
	C657.394348,484.839813 658.941589,483.249878 659.286438,481.431885 
	C660.719055,473.879150 661.789062,466.257629 663.571045,459.154572 
	C664.065125,460.566772 664.508850,461.998993 665.061462,463.387878 
	C668.393860,471.763306 671.777100,480.122559 678.917725,486.172882 
	C684.200439,490.648956 688.745300,490.722290 694.287781,486.330444 
	C691.961548,480.943665 689.604675,475.486023 687.148499,469.798431 
	C682.103088,471.241882 680.022034,468.171844 678.814453,464.251678 
	C677.396667,459.649231 676.307861,454.946381 675.022522,450.301971 
	C674.188965,447.290192 675.187683,445.793243 678.307190,444.960327 
	C683.677429,443.526520 688.923096,441.625824 694.743591,439.752960 
	C691.716431,434.338196 689.188538,429.681427 686.533569,425.098297 
	C682.161682,417.551117 682.129395,417.580536 673.880676,419.743439 
	C673.110107,419.945526 672.283325,419.933594 670.955933,420.078552 
	C670.955933,418.027405 670.955566,416.241760 670.955994,414.456116 
	C670.959595,399.136292 671.001038,383.816284 670.914124,368.496979 
	C670.904419,366.787292 670.738098,364.360809 669.660461,363.503571 
	C665.734009,360.379974 661.390015,357.781342 656.247681,354.346466 
	C656.247681,367.489594 656.247681,379.268463 655.579285,390.833313 
	C652.857971,390.113647 651.437927,384.941498 647.689514,387.958832 
	C644.874023,384.446838 642.249207,380.369385 638.846802,377.101562 
	C632.458679,370.966003 625.623718,371.725525 620.931946,379.085999 
	C618.760437,382.492706 617.670288,386.588684 615.612976,389.489288 
	C615.055359,387.409241 614.549622,385.313660 613.931641,383.251678 
	C609.959778,369.997681 603.849731,357.906494 593.376404,348.612213 
	C579.692627,336.468872 568.883423,338.983154 561.690491,354.645233 
	C558.332825,341.904053 553.864624,329.638885 545.705627,319.081299 
	C540.488586,312.330475 534.684692,306.146881 526.048462,303.821960 
	C521.226624,302.523865 516.495422,302.449860 512.355103,307.241516 
	C510.863800,309.596313 509.372467,311.951141 507.293274,313.864014 
	C506.274933,311.600616 505.273438,309.329468 504.235260,307.075195 
	C499.871613,297.600159 494.373779,289.027344 485.171844,283.469238 
	C479.520538,280.055756 473.768555,279.032654 467.506989,283.166840 
	C467.254669,283.321136 467.077820,283.537231 466.741760,284.323090 
	C466.450592,284.548523 466.159424,284.773926 465.462646,285.233612 
	C465.212463,285.452606 465.082153,285.728271 464.968018,286.574799 
	C464.866821,286.717407 464.765656,286.859985 464.020630,287.158508 
	C463.735962,288.154022 463.451324,289.149536 463.161194,290.187653 
M737.724976,582.839844 
	C753.202393,574.724426 768.589905,566.430603 784.196228,558.571106 
	C791.682922,554.800720 794.895996,548.973328 794.900696,540.942688 
	C794.905273,533.111389 794.867676,525.280090 794.867554,517.448792 
	C794.866638,459.963562 794.951782,402.478119 794.809814,344.993256 
	C794.778381,332.259735 791.048462,320.737610 780.781494,311.362091 
	C756.559204,294.254730 732.345825,277.134613 708.112915,260.042419 
	C634.189575,207.902130 560.266663,155.761078 486.325623,103.645897 
	C464.402191,88.193817 442.393280,72.862923 420.481537,57.394379 
	C414.986053,53.514870 408.878662,52.046417 403.048584,55.097988 
	C388.609741,62.655521 374.529633,70.898422 359.653870,78.837791 
	C356.287445,80.653748 352.784515,82.259506 349.586884,84.335457 
	C344.910828,87.371239 342.910217,91.885384 343.169708,98.023697 
	C351.957123,94.332787 358.940308,97.806694 365.614777,102.636665 
	C366.828552,103.514992 368.100189,104.312920 369.323486,105.178535 
	C412.008850,135.383163 454.674042,165.616364 497.378876,195.793411 
	C562.796082,242.019913 628.184021,288.288239 693.720093,334.345673 
	C707.022339,343.694183 713.135559,356.277740 713.273499,372.131500 
	C713.511230,399.450470 713.734741,426.770203 713.795593,454.089996 
	C713.886963,495.084045 713.914551,536.078735 713.776489,577.072449 
	C713.746155,586.074280 712.841736,595.038696 702.200806,598.734009 
	C715.829346,597.750916 725.871460,589.111511 737.724976,582.839844 
z"/>
<path fill="#F5EDEB" opacity="1.000000" stroke="none" 
	d="
M233.009888,714.008301 
	C254.137222,701.938477 275.253876,689.849915 296.405914,677.823547 
	C298.947998,676.378296 301.682098,675.270691 304.820374,674.406128 
	C305.428497,677.967712 305.601044,681.128784 305.648041,684.291748 
	C305.813782,695.448364 305.936554,706.605713 306.041138,718.249390 
	C305.989227,724.363037 306.278870,730.013000 305.862793,735.610413 
	C305.491516,740.605225 306.743652,743.843079 311.593109,746.208008 
	C322.514709,751.534058 331.745819,760.131226 344.177124,763.274292 
	C349.231873,765.724182 354.072113,767.904541 359.092407,770.376282 
	C362.480225,772.145691 365.687988,773.623657 369.078125,775.393738 
	C374.169159,778.137024 379.077850,780.588257 384.192688,783.311646 
	C389.932434,786.383484 395.466003,789.183228 401.198669,792.262573 
	C417.192047,801.282349 422.975464,800.552795 436.934662,788.676208 
	C440.443939,785.690430 444.480103,783.289490 448.411713,780.840637 
	C461.337067,772.789673 474.333405,764.852783 487.284332,756.842773 
	C490.483704,754.864014 490.987061,752.558960 487.562408,750.353882 
	C483.098602,747.479858 478.523529,744.778564 473.797791,741.730957 
	C469.071594,738.966431 464.543976,736.473877 459.862000,733.678711 
	C455.521851,730.894043 451.336029,728.411987 446.952881,725.647034 
	C442.853119,722.902283 438.950714,720.440552 434.823730,717.723389 
	C433.641388,716.878418 432.682343,716.290771 431.725983,715.698853 
	C425.459381,711.820068 419.193359,707.940247 412.636292,703.882141 
	C410.749298,700.669983 409.153198,697.636414 407.806641,694.283691 
	C408.277344,692.680115 408.690308,691.395935 408.691193,690.111450 
	C408.707520,666.068359 408.674927,642.025269 408.741394,617.596680 
	C408.794342,615.900085 408.758484,614.588928 408.821136,612.928955 
	C416.713013,605.938904 422.322876,597.872437 425.338379,588.067139 
	C426.172028,588.641724 426.668884,589.089539 427.214661,589.466614 
	C434.510834,594.506958 438.672394,593.122925 441.350494,584.804810 
	C442.317017,581.802734 443.352753,578.822998 444.818481,575.874146 
	C448.811981,577.044983 452.823395,577.451721 455.796600,579.423767 
	C472.711304,590.642639 489.355469,602.268738 506.164032,613.649414 
	C507.857239,614.795837 510.034637,615.227112 511.990479,616.419800 
	C511.663666,622.297729 511.085114,627.744446 511.049164,633.194824 
	C510.928986,651.426147 511.002625,669.658752 511.002563,687.890869 
	C511.002502,711.360657 510.963013,734.830505 511.026306,758.300110 
	C511.046631,765.835449 511.381012,773.369446 511.497467,780.905212 
	C511.693542,793.596680 511.830170,806.289062 511.985107,819.451538 
	C511.976013,838.579163 511.845734,857.238098 512.105347,875.891541 
	C512.145508,878.778198 513.394836,882.046814 515.079834,884.437683 
	C520.344666,891.908264 531.104370,892.556335 537.918579,888.692017 
	C551.776367,880.833191 565.947998,873.528076 580.233276,866.001343 
	C580.476257,866.007996 580.962341,866.015808 581.179688,866.281738 
	C586.598083,869.031616 591.799011,871.515564 597.201782,874.275452 
	C601.934143,876.703308 606.464600,878.855347 611.196533,881.283569 
	C615.617554,883.880859 619.880310,886.127686 624.042786,888.546997 
	C627.281006,890.429199 630.113098,890.180115 633.340881,888.207886 
	C645.063110,881.045410 656.802734,873.892029 668.789001,867.187927 
	C676.741577,862.739868 685.137268,859.086487 693.301025,855.010193 
	C694.248779,854.537048 695.502991,853.735474 695.665222,852.901428 
	C695.820862,852.100830 694.973633,850.620117 694.167847,850.195068 
	C688.164429,847.028259 682.061768,844.049805 675.682800,840.860474 
	C670.930298,838.455627 666.485229,836.202576 661.828369,833.684448 
	C656.741394,830.953857 651.866089,828.488281 646.649902,825.963501 
	C642.526550,823.626404 638.744080,821.348450 635.211792,818.778381 
	C637.057495,818.522644 638.714111,818.294189 640.236816,818.645874 
	C644.521301,819.635437 648.708435,821.498840 653.015930,821.785522 
	C656.153076,821.994324 659.420349,820.246521 662.629639,819.370972 
	C660.605286,816.685120 659.054504,813.369080 656.470764,811.427673 
	C647.511536,804.695557 638.221313,798.400391 628.982178,792.047913 
	C627.559570,791.069763 625.743530,790.663696 624.014343,789.533203 
	C623.887512,778.124023 623.807312,767.174561 623.835205,756.225403 
	C623.880493,738.481812 623.996826,720.738281 624.451904,703.000610 
	C626.462952,703.737610 628.247131,704.255371 629.723328,705.236572 
	C636.488037,709.733093 643.208984,714.298523 649.867981,718.950378 
	C669.438904,732.622375 688.977722,746.340271 708.520020,760.053162 
	C726.985168,773.010132 745.473145,785.935059 763.887878,798.963379 
	C782.972351,812.465515 801.988586,826.064209 820.996887,839.673401 
	C821.830444,840.270203 822.287476,841.392822 822.855164,842.180603 
	C822.398865,842.769165 822.252686,843.137817 821.987061,843.274475 
	C804.103210,852.480774 786.182556,861.615845 768.323914,870.870544 
	C744.841858,883.039429 721.441772,895.366577 697.944031,907.504883 
	C672.236450,920.784729 646.456604,933.924866 620.711304,947.131836 
	C617.028748,949.020935 613.181885,950.663757 609.725647,952.905457 
	C601.227905,958.417236 593.216309,958.441162 584.753906,952.524048 
	C563.972534,937.993103 543.000732,923.733521 522.049316,909.447144 
	C499.860107,894.316833 477.727356,879.098816 455.349030,864.252136 
	C428.109375,846.180237 400.556366,828.581055 373.293976,810.543030 
	C350.191589,795.257324 327.314148,779.631714 304.328979,764.168640 
	C285.892303,751.765442 267.362610,739.497925 249.047989,726.917175 
	C243.407654,723.042664 238.339874,718.334656 233.009888,714.008301 
z"/>
<path fill="#664A53" opacity="1.000000" stroke="none" 
	d="
M360.305389,78.865936 
	C374.529633,70.898422 388.609741,62.655521 403.048584,55.097988 
	C408.878662,52.046417 414.986053,53.514870 420.481537,57.394379 
	C442.393280,72.862923 464.402191,88.193817 486.325623,103.645897 
	C560.266663,155.761078 634.189575,207.902130 708.112915,260.042419 
	C732.345825,277.134613 756.559204,294.254730 780.558411,311.684204 
	C773.742432,315.331543 767.063110,318.497589 760.576477,322.018677 
	C750.283569,327.605927 740.119324,333.430359 729.619507,338.973328 
	C727.041870,336.622375 724.969666,334.134369 722.413940,332.332001 
	C696.590271,314.119751 670.670898,296.043243 644.811035,277.882111 
	C610.918091,254.079468 577.052002,230.238602 543.179077,206.407532 
	C491.896332,170.327896 440.644318,134.204468 389.313141,98.193840 
	C379.804077,91.522888 369.982666,85.297150 360.305389,78.865936 
z"/>
<path fill="#FBF7F5" opacity="1.000000" stroke="none" 
	d="
M232.701965,714.152832 
	C238.339874,718.334656 243.407654,723.042664 249.047989,726.917175 
	C267.362610,739.497925 285.892303,751.765442 304.328979,764.168640 
	C327.314148,779.631714 350.191589,795.257324 373.293976,810.543030 
	C400.556366,828.581055 428.109375,846.180237 455.349030,864.252136 
	C477.727356,879.098816 499.860107,894.316833 522.049316,909.447144 
	C543.000732,923.733521 563.972534,937.993103 584.753906,952.524048 
	C593.216309,958.441162 601.227905,958.417236 609.725647,952.905457 
	C613.181885,950.663757 617.028748,949.020935 620.711304,947.131836 
	C646.456604,933.924866 672.236450,920.784729 697.944031,907.504883 
	C721.441772,895.366577 744.841858,883.039429 768.323914,870.870544 
	C786.182556,861.615845 804.103210,852.480774 821.987061,843.274475 
	C822.252686,843.137817 822.398865,842.769165 822.855164,842.180603 
	C822.287476,841.392822 821.830444,840.270203 820.996887,839.673401 
	C801.988586,826.064209 782.972351,812.465515 763.887878,798.963379 
	C745.473145,785.935059 726.985168,773.010132 708.520020,760.053162 
	C688.977722,746.340271 669.438904,732.622375 649.867981,718.950378 
	C643.208984,714.298523 636.488037,709.733093 629.723328,705.236572 
	C628.247131,704.255371 626.462952,703.737610 624.358398,702.540649 
	C623.967163,696.047485 624.038208,690.020142 624.109253,683.992798 
	C626.170776,684.939819 628.431702,685.600403 630.264343,686.876221 
	C665.799927,711.615845 701.314270,736.386047 736.772644,761.236145 
	C769.099060,783.891357 801.294495,806.734009 833.684631,829.297363 
	C840.986206,834.383667 841.629333,841.352478 840.733032,849.749817 
	C839.150879,851.833496 838.088928,853.722839 836.478638,854.569824 
	C827.544312,859.269165 818.438416,863.640808 809.462646,868.263245 
	C790.417908,878.071289 771.403809,887.938965 752.403198,897.832275 
	C739.567444,904.515747 726.771606,911.275818 713.966431,918.017761 
	C698.825684,925.989380 683.668579,933.930603 668.564453,941.971191 
	C646.988708,953.456909 625.433228,964.981506 603.924133,976.591370 
	C600.469604,978.455994 597.300903,980.850098 594.000000,982.999390 
	C585.750854,977.522339 577.400269,972.191040 569.274902,966.536133 
	C554.849060,956.496277 540.620422,946.173157 526.199951,936.125488 
	C501.161194,918.679382 476.161438,901.172791 450.920837,884.021851 
	C419.775726,862.858887 388.356049,842.100342 357.141205,821.039246 
	C335.279358,806.288696 313.605255,791.260071 291.766815,776.474548 
	C272.135010,763.182922 252.608917,749.714050 232.599350,737.011536 
	C224.055252,731.587585 222.129486,719.671326 232.701965,714.152832 
z"/>
<path fill="#543A43" opacity="1.000000" stroke="none" 
	d="
M729.900635,339.154480 
	C740.119324,333.430359 750.283569,327.605927 760.576477,322.018677 
	C767.063110,318.497589 773.742432,315.331543 780.719238,311.982269 
	C791.048462,320.737610 794.778381,332.259735 794.809814,344.993256 
	C794.951782,402.478119 794.866638,459.963562 794.867554,517.448792 
	C794.867676,525.280090 794.905273,533.111389 794.900696,540.942688 
	C794.895996,548.973328 791.682922,554.800720 784.196228,558.571106 
	C768.589905,566.430603 753.202393,574.724426 737.438232,582.414917 
	C737.138123,510.497345 737.029053,439.004547 737.218201,367.512482 
	C737.245422,357.243347 736.198364,347.616852 729.900635,339.154480 
z"/>
<path fill="#B78A9A" opacity="1.000000" stroke="none" 
	d="
M729.619507,338.973328 
	C736.198364,347.616852 737.245422,357.243347 737.218201,367.512482 
	C737.029053,439.004547 737.138123,510.497345 737.082764,582.448120 
	C725.871460,589.111511 715.829346,597.750916 702.200806,598.734009 
	C712.841736,595.038696 713.746155,586.074280 713.776489,577.072449 
	C713.914551,536.078735 713.886963,495.084045 713.795593,454.089996 
	C713.734741,426.770203 713.511230,399.450470 713.273499,372.131500 
	C713.135559,356.277740 707.022339,343.694183 693.720093,334.345673 
	C628.184021,288.288239 562.796082,242.019913 497.378876,195.793411 
	C454.674042,165.616364 412.008850,135.383163 369.323486,105.178535 
	C368.100189,104.312920 366.828552,103.514992 365.614777,102.636665 
	C358.940308,97.806694 351.957123,94.332787 343.169708,98.023697 
	C342.910217,91.885384 344.910828,87.371239 349.586884,84.335457 
	C352.784515,82.259506 356.287445,80.653748 359.979614,78.851860 
	C369.982666,85.297150 379.804077,91.522888 389.313141,98.193840 
	C440.644318,134.204468 491.896332,170.327896 543.179077,206.407532 
	C577.052002,230.238602 610.918091,254.079468 644.811035,277.882111 
	C670.670898,296.043243 696.590271,314.119751 722.413940,332.332001 
	C724.969666,334.134369 727.041870,336.622375 729.619507,338.973328 
z"/>
<path fill="#523A42" opacity="1.000000" stroke="none" 
	d="
M624.010437,683.533630 
	C624.038208,690.020142 623.967163,696.047485 623.989685,702.534790 
	C623.996826,720.738281 623.880493,738.481812 623.835205,756.225403 
	C623.807312,767.174561 623.887512,778.124023 623.915833,789.993469 
	C624.031921,798.911560 624.151367,806.909424 624.140747,815.368164 
	C623.946655,823.212158 623.882690,830.595337 623.678955,838.288330 
	C622.715149,839.558899 622.071106,840.824768 621.039368,841.433655 
	C609.188538,848.427490 597.291016,855.342773 585.359680,862.198547 
	C584.473938,862.707642 583.232910,862.598267 582.249756,862.329590 
	C582.381714,861.050842 582.454712,860.218750 582.455322,859.386719 
	C582.502747,797.900024 582.566833,736.413391 582.561646,674.926697 
	C582.560852,665.947815 582.227417,656.968994 582.159668,647.532837 
	C582.305176,621.671814 582.390259,596.267944 582.354980,570.864197 
	C582.330566,553.269531 582.140076,535.675049 582.023804,518.080505 
	C583.332275,518.710693 584.753540,519.178284 585.931702,519.996155 
	C597.676392,528.149170 609.461975,536.248901 621.002136,544.683716 
	C622.584717,545.840454 623.662720,548.742065 623.671875,550.841492 
	C623.864563,594.918640 623.869690,638.996643 624.010437,683.533630 
z"/>
<path fill="#533941" opacity="1.000000" stroke="none" 
	d="
M312.953766,517.980530 
	C306.804016,517.691589 302.505859,513.919983 298.979889,509.611267 
	C287.856873,496.018890 281.352386,480.201447 279.147125,462.904968 
	C275.419098,433.664398 285.579803,414.710815 311.675537,401.217194 
	C319.046722,397.405670 326.687897,394.078247 334.353149,390.883667 
	C342.430023,387.517548 350.873749,387.533020 358.562744,391.524200 
	C370.515869,397.728882 382.992432,401.927307 396.893372,404.312439 
	C400.015259,405.119141 402.493103,405.590820 405.191223,406.322052 
	C408.241119,407.741608 411.070679,408.901611 414.106201,410.326050 
	C416.543091,412.055969 418.774017,413.521454 421.189484,415.275635 
	C426.562347,420.050079 426.603882,425.789001 425.150757,432.103638 
	C423.645386,435.571014 422.327484,438.780945 420.663757,442.003296 
	C418.548584,443.313599 416.779266,444.611450 414.683929,446.000366 
	C412.409821,447.630280 410.461700,449.169128 408.164124,450.726685 
	C402.209747,453.902313 396.521759,456.921967 391.020477,460.250244 
	C383.873383,464.574341 376.572083,468.270081 367.556000,468.092285 
	C357.171478,465.511841 347.171204,463.042633 336.271240,460.351288 
	C336.271240,468.245026 336.271240,474.617004 336.271240,482.194824 
	C330.743713,478.692810 326.174316,475.827118 321.635895,472.913239 
	C317.995270,470.575714 313.634613,469.415985 310.537109,472.359467 
	C307.954803,474.813416 306.123138,478.941132 305.673523,482.541626 
	C305.049988,487.535339 307.718079,491.817169 312.086426,494.695953 
	C313.749298,495.791840 315.505463,496.752228 317.126587,497.904510 
	C324.666351,503.263855 323.868958,512.747437 315.576935,516.695679 
	C314.697906,517.114197 313.827942,517.551819 312.953766,517.980530 
z"/>
<path fill="#DBC5CB" opacity="1.000000" stroke="none" 
	d="
M581.933472,517.745422 
	C582.140076,535.675049 582.330566,553.269531 582.354980,570.864197 
	C582.390259,596.267944 582.305176,621.671814 581.802979,647.504272 
	C561.156799,635.038452 541.000854,622.109558 520.775452,609.290344 
	C518.045898,607.560425 514.966675,606.382263 512.029846,604.508545 
	C511.954346,601.702576 511.898407,599.336670 511.884766,596.506348 
	C511.894989,563.052124 511.862946,530.062317 511.888062,496.733490 
	C511.650269,495.604218 511.355316,494.813904 511.071930,493.647125 
	C512.704590,486.184601 514.325745,479.098572 515.946838,472.012543 
	C523.703735,477.054932 531.566223,481.943298 539.194275,487.173615 
	C552.753113,496.470520 566.173767,505.969086 579.636292,515.406006 
	C580.443604,515.971863 581.110779,516.737610 581.933472,517.745422 
z"/>
<path fill="#FDFBFA" opacity="1.000000" stroke="none" 
	d="
M594.194153,983.271912 
	C597.300903,980.850098 600.469604,978.455994 603.924133,976.591370 
	C625.433228,964.981506 646.988708,953.456909 668.564453,941.971191 
	C683.668579,933.930603 698.825684,925.989380 713.966431,918.017761 
	C726.771606,911.275818 739.567444,904.515747 752.403198,897.832275 
	C771.403809,887.938965 790.417908,878.071289 809.462646,868.263245 
	C818.438416,863.640808 827.544312,859.269165 836.478638,854.569824 
	C838.088928,853.722839 839.150879,851.833496 840.733032,850.212646 
	C841.000000,860.460083 840.692993,870.932251 841.105835,881.375977 
	C841.390381,888.573792 839.072083,892.980652 832.188232,896.129456 
	C819.251038,902.047302 806.697266,908.823792 794.108337,915.478271 
	C769.297058,928.593384 744.627075,941.976257 719.789368,955.040527 
	C703.227417,963.751953 686.469543,972.090637 669.812439,980.621582 
	C658.285217,986.525208 646.885803,992.690735 635.226074,998.318237 
	C628.168274,1001.724670 620.982361,1000.835205 614.364746,996.612183 
	C607.657654,992.331970 601.043274,987.906372 594.194153,983.271912 
z"/>
<path fill="#47323C" opacity="1.000000" stroke="none" 
	d="
M515.843506,471.553375 
	C514.325745,479.098572 512.704590,486.184601 510.894135,493.916504 
	C510.449005,495.365997 510.193237,496.169586 509.681641,497.195312 
	C505.340332,506.504791 497.725464,511.523315 488.961487,514.820557 
	C491.339020,509.196930 494.373779,504.135040 495.924774,498.653381 
	C501.723297,478.159698 499.631409,457.374725 495.595612,437.056030 
	C488.708862,402.383667 476.043518,369.828461 454.961273,341.075714 
	C442.216339,323.693726 428.074280,307.922089 405.075684,304.698975 
	C410.290955,302.258331 415.263184,300.072754 420.235413,297.887146 
	C425.173370,298.624512 430.111359,299.361908 435.627533,300.400635 
	C442.622589,305.155609 449.039459,309.609192 455.559418,314.410156 
	C458.767822,317.862701 461.873169,320.967865 464.990967,324.036743 
	C465.003448,324.000458 464.931213,323.974579 464.902771,324.225037 
	C465.203308,324.837921 465.532257,325.200378 466.011780,325.892365 
	C473.900635,338.085846 481.638885,349.949829 489.377136,361.813812 
	C495.462708,377.576843 502.225189,393.118866 507.462402,409.158875 
	C513.999939,429.181396 516.224182,450.013794 515.843506,471.553375 
z"/>
<path fill="#795562" opacity="1.000000" stroke="none" 
	d="
M404.832672,304.954041 
	C428.074280,307.922089 442.216339,323.693726 454.961273,341.075714 
	C476.043518,369.828461 488.708862,402.383667 495.595612,437.056030 
	C499.631409,457.374725 501.723297,478.159698 495.924774,498.653381 
	C494.373779,504.135040 491.339020,509.196930 488.727051,515.089172 
	C484.050232,516.582336 479.631805,517.437927 474.855194,518.168457 
	C470.028076,515.711121 465.559143,513.378662 460.764648,510.932281 
	C455.180542,505.858582 449.922058,500.898804 444.498657,495.783478 
	C443.412170,496.123688 441.891479,496.599854 440.291016,496.685425 
	C440.038574,493.835815 440.649689,490.943390 439.567993,488.986908 
	C431.571411,474.522980 423.237701,460.245453 415.009949,445.909302 
	C416.779266,444.611450 418.548584,443.313599 420.961090,442.179382 
	C425.001129,448.978027 427.810150,456.006287 431.927063,462.159546 
	C438.792999,472.421692 446.496094,482.123779 454.006134,492.362427 
	C459.500549,495.901947 464.526031,499.931915 470.251740,502.171875 
	C476.875580,504.763123 482.077271,502.416901 485.230865,495.986115 
	C487.530670,491.296387 489.693604,485.992493 489.841736,480.901978 
	C490.217316,467.994690 490.521698,454.910400 488.858612,442.157257 
	C485.917816,419.606018 478.753937,398.143768 468.077423,377.580505 
	C460.994354,366.365540 454.840302,354.775269 446.642334,344.877991 
	C440.123657,337.008087 431.346680,330.890991 423.090424,324.631317 
	C419.358826,321.802155 414.427643,321.247498 409.664734,324.053589 
	C409.201447,324.330078 409.027863,324.571106 408.947937,324.911987 
	C408.956512,324.950592 408.877960,324.940247 408.517761,324.947723 
	C401.542877,327.372467 399.147705,333.015167 398.098511,339.155518 
	C395.241760,355.875092 397.400757,372.370514 401.071686,388.739227 
	C402.366882,394.514679 403.670959,400.288116 404.970947,406.062500 
	C402.493103,405.590820 400.015259,405.119141 397.287109,404.383789 
	C394.877899,394.785309 392.476440,385.498627 390.613434,376.105103 
	C387.304413,359.420013 385.505585,342.622925 388.929657,325.698792 
	C390.678741,317.053680 394.410065,309.698517 403.258118,305.282959 
	C404.096344,304.972839 404.464508,304.963440 404.832672,304.954041 
z"/>
<path fill="#EDC6A2" opacity="1.000000" stroke="none" 
	d="
M312.935486,518.366821 
	C313.827942,517.551819 314.697906,517.114197 315.576935,516.695679 
	C323.868958,512.747437 324.666351,503.263855 317.126587,497.904510 
	C315.505463,496.752228 313.749298,495.791840 312.086426,494.695953 
	C307.718079,491.817169 305.049988,487.535339 305.673523,482.541626 
	C306.123138,478.941132 307.954803,474.813416 310.537109,472.359467 
	C313.634613,469.415985 317.995270,470.575714 321.635895,472.913239 
	C326.174316,475.827118 330.743713,478.692810 336.271240,482.194824 
	C336.271240,474.617004 336.271240,468.245026 336.271240,460.351288 
	C347.171204,463.042633 357.171478,465.511841 367.566315,468.545532 
	C367.968842,489.769867 367.927765,510.429932 368.031311,531.089294 
	C368.049316,534.679932 367.725311,537.189636 363.146423,537.300171 
	C359.887329,537.378845 356.591400,538.276550 353.422272,539.191162 
	C348.594086,540.584534 343.861389,542.308716 339.088135,543.892456 
	C333.450317,540.087891 327.268982,536.868164 322.346649,532.293762 
	C318.409332,528.634766 316.003021,523.328308 312.935486,518.366821 
z"/>
<path fill="#EDC6A2" opacity="1.000000" stroke="none" 
	d="
M425.024323,587.907532 
	C422.322876,597.872437 416.713013,605.938904 408.492188,612.922485 
	C406.615295,614.042114 405.171478,614.830139 403.715424,615.594971 
	C393.128021,621.155640 381.729858,622.875122 371.214233,617.276917 
	C360.776428,611.720276 351.533142,603.919739 341.820465,596.718628 
	C344.562531,590.217773 347.250092,584.101501 349.937622,577.985229 
	C352.978424,571.874878 356.019226,565.764587 359.442017,559.418640 
	C365.227783,562.780701 370.780365,566.178650 375.978943,570.051697 
	C379.053802,572.342590 381.438660,572.412170 384.397430,570.045837 
	C391.532806,564.339111 399.624939,561.278198 409.251282,561.941284 
	C410.054688,561.903870 410.512573,561.859131 411.281616,561.987549 
	C414.691620,564.431824 417.790558,566.702881 420.867920,569.381348 
	C419.033325,576.567444 420.367645,582.620544 425.024323,587.907532 
z"/>
<path fill="#5975D7" opacity="1.000000" stroke="none" 
	d="
M405.075684,304.698975 
	C404.464508,304.963440 404.096344,304.972839 403.450745,304.994812 
	C383.828918,279.899780 372.345276,251.902985 372.434875,219.838852 
	C372.448547,214.942764 373.489624,209.863937 375.033203,205.192703 
	C379.570465,191.461777 391.124298,185.670944 405.082489,189.703705 
	C419.362030,193.829285 429.482880,203.668106 438.520203,214.728317 
	C442.897949,220.085953 446.519135,226.061783 450.762695,232.159821 
	C445.985962,235.451096 441.927734,238.247299 438.604614,240.537003 
	C431.947540,233.613632 425.957428,226.744797 419.274506,220.633530 
	C413.811829,215.638153 406.846863,212.283066 399.601410,215.930450 
	C392.708801,219.400162 392.025848,226.826553 391.924438,233.777603 
	C391.615784,254.940735 399.014282,273.510834 411.643829,290.126434 
	C413.798248,292.960815 417.079315,294.938904 420.037659,297.599884 
	C415.263184,300.072754 410.290955,302.258331 405.075684,304.698975 
z"/>
<path fill="#5975D7" opacity="1.000000" stroke="none" 
	d="
M616.089905,390.372192 
	C617.670288,386.588684 618.760437,382.492706 620.931946,379.085999 
	C625.623718,371.725525 632.458679,370.966003 638.846802,377.101562 
	C642.249207,380.369385 644.874023,384.446838 647.689514,387.958832 
	C651.437927,384.941498 652.857971,390.113647 655.939575,391.123535 
	C656.299927,391.413757 656.268372,391.783630 656.173584,392.259399 
	C655.996155,424.129761 655.913574,455.524292 655.831055,486.918854 
	C651.685486,491.731323 647.783936,492.857819 642.193726,490.758728 
	C635.524963,488.254639 630.282410,483.706421 626.885498,477.697998 
	C622.654846,470.214905 619.361755,462.200378 615.693909,454.401184 
	C614.074036,450.956696 614.869507,448.752258 618.891541,447.965118 
	C621.286072,447.496490 623.600220,446.617523 626.161682,445.860596 
	C627.826721,450.356628 629.081787,454.498901 630.887878,458.385010 
	C632.342896,461.515778 634.130371,464.623718 636.368835,467.227173 
	C639.584900,470.967529 642.881104,470.445221 644.776794,465.814209 
	C646.182800,462.379517 646.594421,458.537781 647.536255,454.503601 
	C639.181458,456.427246 632.524048,452.928864 627.910156,443.104797 
	C623.768738,434.286621 620.935303,424.854126 617.270386,414.971832 
	C616.707275,406.291412 616.398621,398.331818 616.089905,390.372192 
M648.019348,418.810699 
	C645.762146,412.487854 643.858582,405.999878 641.030579,399.943542 
	C640.190002,398.143433 636.615723,396.487946 634.547791,396.752136 
	C632.902527,396.962341 630.703369,400.044861 630.369202,402.113800 
	C628.508850,413.630127 631.395508,424.221710 638.320862,433.514343 
	C641.589111,437.899689 646.067444,436.945526 647.368835,431.563110 
	C648.282471,427.784271 647.891785,423.690033 648.019348,418.810699 
z"/>
<path fill="#E89576" opacity="1.000000" stroke="none" 
	d="
M339.299255,544.148743 
	C343.861389,542.308716 348.594086,540.584534 353.422272,539.191162 
	C356.591400,538.276550 359.887329,537.378845 363.146423,537.300171 
	C367.725311,537.189636 368.049316,534.679932 368.031311,531.089294 
	C367.927765,510.429932 367.968842,489.769867 367.950592,468.656738 
	C376.572083,468.270081 383.873383,464.574341 391.020477,460.250244 
	C396.521759,456.921967 402.209747,453.902313 408.298309,451.204041 
	C408.909821,464.726288 409.037750,477.789948 409.114380,491.315247 
	C408.020874,497.592804 406.978668,503.408630 405.641052,509.354401 
	C403.684326,511.735016 402.062225,514.015991 400.353424,516.230164 
	C396.742126,520.909424 393.959625,526.889709 389.277740,529.953064 
	C376.962677,538.010864 363.813324,544.793579 350.996277,552.084229 
	C347.167664,549.524475 343.339020,546.964783 339.299255,544.148743 
z"/>
<path fill="#FCC418" opacity="1.000000" stroke="none" 
	d="
M512.956604,306.940552 
	C516.495422,302.449860 521.226624,302.523865 526.048462,303.821960 
	C534.684692,306.146881 540.488586,312.330475 545.705627,319.081299 
	C553.864624,329.638885 558.332825,341.904053 561.825623,355.388000 
	C561.980286,359.270142 561.999817,362.409485 561.747192,365.912170 
	C561.581421,372.340637 561.687744,378.405792 561.794006,384.470947 
	C560.897522,386.045502 559.886230,387.566498 559.123047,389.203186 
	C553.633484,400.975983 543.932373,403.418060 533.548462,395.532745 
	C521.831177,386.634979 514.911194,374.550690 510.917542,360.298706 
	C515.365723,358.221039 519.528625,356.584564 523.858032,355.291382 
	C526.938232,360.786957 529.192505,366.493164 532.935303,370.949066 
	C537.445251,376.318237 543.664795,374.438477 545.008667,367.511108 
	C547.743835,353.411804 543.802979,340.873566 534.663879,329.964874 
	C531.743713,326.479248 528.010315,325.779877 523.635132,327.962158 
	C519.879395,320.827271 516.417969,313.883911 512.956604,306.940552 
z"/>
<path fill="#EE5B54" opacity="1.000000" stroke="none" 
	d="
M656.268372,391.783630 
	C656.268372,391.783630 656.299927,391.413757 656.273804,391.230530 
	C656.247681,379.268463 656.247681,367.489594 656.247681,354.346466 
	C661.390015,357.781342 665.734009,360.379974 669.660461,363.503571 
	C670.738098,364.360809 670.904419,366.787292 670.914124,368.496979 
	C671.001038,383.816284 670.959595,399.136292 670.955994,414.456116 
	C670.955566,416.241760 670.955933,418.027405 670.955933,420.078552 
	C672.283325,419.933594 673.110107,419.945526 673.880676,419.743439 
	C682.129395,417.580536 682.161682,417.551117 686.533569,425.098297 
	C689.188538,429.681427 691.716431,434.338196 694.743591,439.752960 
	C688.923096,441.625824 683.677429,443.526520 678.307190,444.960327 
	C675.187683,445.793243 674.188965,447.290192 675.022522,450.301971 
	C676.307861,454.946381 677.396667,459.649231 678.814453,464.251678 
	C680.022034,468.171844 682.103088,471.241882 687.148499,469.798431 
	C689.604675,475.486023 691.961548,480.943665 694.287781,486.330444 
	C688.745300,490.722290 684.200439,490.648956 678.917725,486.172882 
	C671.777100,480.122559 668.393860,471.763306 665.061462,463.387878 
	C664.508850,461.998993 664.065125,460.566772 663.269775,458.470612 
	C662.928467,440.045563 662.645630,422.299835 662.984924,404.566010 
	C663.098022,398.656494 662.011963,394.215607 656.268372,391.783630 
z"/>
<path fill="#EE5B54" opacity="1.000000" stroke="none" 
	d="
M562.019348,365.548859 
	C561.999817,362.409485 561.980286,359.270142 561.915955,355.836578 
	C568.883423,338.983154 579.692627,336.468872 593.376404,348.612213 
	C603.849731,357.906494 609.959778,369.997681 613.931641,383.251678 
	C614.549622,385.313660 615.055359,387.409241 615.851440,389.930725 
	C616.398621,398.331818 616.707275,406.291412 617.015930,414.619080 
	C615.559692,419.170654 614.373169,423.473877 612.581848,427.508575 
	C610.110413,433.074860 606.014343,436.907043 599.248169,436.968628 
	C598.263916,428.740234 597.612244,421.049011 597.244019,413.111511 
	C605.020386,401.757324 599.287476,375.055450 587.855835,368.071625 
	C584.961670,366.303497 581.775757,365.624847 579.191772,368.408264 
	C577.780273,369.928772 577.095886,372.124390 575.731812,373.961365 
	C570.926514,371.121094 566.472900,368.334991 562.019348,365.548859 
z"/>
<path fill="#FCC418" opacity="1.000000" stroke="none" 
	d="
M489.776245,361.874237 
	C481.638885,349.949829 473.900635,338.085846 465.920929,325.674347 
	C465.430054,324.742737 465.180634,324.358673 464.931213,323.974579 
	C464.931213,323.974579 465.003448,324.000458 464.997070,323.622803 
	C462.411194,312.347687 460.470795,301.415131 463.177551,290.227386 
	C463.177551,290.227386 463.161194,290.187653 463.419769,289.995941 
	C464.007080,288.870361 464.335815,287.936462 464.664520,287.002594 
	C464.765656,286.859985 464.866821,286.717407 465.244202,286.225403 
	C465.783783,285.642303 465.899750,285.350098 465.868286,284.999329 
	C466.159424,284.773926 466.450592,284.548523 467.080688,284.031677 
	C467.709229,283.586700 467.871460,283.346893 467.906250,283.020874 
	C473.768555,279.032654 479.520538,280.055756 485.171844,283.469238 
	C494.373779,289.027344 499.871613,297.600159 504.235260,307.075195 
	C505.273438,309.329468 506.274933,311.600616 507.452454,314.404205 
	C503.811584,326.097687 504.955231,337.351440 506.927307,348.622009 
	C505.284882,351.429993 503.796661,354.343475 501.964294,357.021545 
	C499.148224,361.137329 495.359436,363.310394 489.776245,361.874237 
M491.500610,311.106628 
	C490.064911,308.881500 489.035370,306.158234 487.083191,304.566589 
	C484.991211,302.860992 481.548523,300.820984 479.582001,301.498901 
	C477.514191,302.211731 475.414612,305.881195 475.206146,308.413208 
	C474.285156,319.599579 477.359497,329.892761 484.566895,338.569946 
	C486.099182,340.414703 489.691162,342.224487 491.573792,341.632446 
	C493.467957,341.036774 495.248352,337.555145 495.623138,335.114624 
	C496.864655,327.030365 495.095856,319.243225 491.500610,311.106628 
z"/>
<path fill="#7779B3" opacity="1.000000" stroke="none" 
	d="
M351.110596,552.394958 
	C363.813324,544.793579 376.962677,538.010864 389.277740,529.953064 
	C393.959625,526.889709 396.742126,520.909424 400.353424,516.230164 
	C402.062225,514.015991 403.684326,511.735016 405.611725,509.791779 
	C406.937927,519.747986 407.998108,529.396667 408.956726,539.502197 
	C408.872040,547.283997 408.888947,554.609009 408.905823,561.933960 
	C399.624939,561.278198 391.532806,564.339111 384.397430,570.045837 
	C381.438660,572.412170 379.053802,572.342590 375.978943,570.051697 
	C370.780365,566.178650 365.227783,562.780701 359.521362,559.056213 
	C356.554138,556.854797 353.889526,554.780273 351.110596,552.394958 
z"/>
<path fill="#6975BE" opacity="1.000000" stroke="none" 
	d="
M341.765961,597.103271 
	C351.533142,603.919739 360.776428,611.720276 371.214233,617.276917 
	C381.729858,622.875122 393.128021,621.155640 403.715424,615.594971 
	C405.171478,614.830139 406.615295,614.042114 408.393707,613.271240 
	C408.758484,614.588928 408.794342,615.900085 408.389282,617.611938 
	C405.718414,619.057922 403.433533,620.000916 401.267059,621.164429 
	C380.530334,632.301147 359.813629,643.475098 339.038513,654.474976 
	C338.985840,654.311646 338.981537,653.968506 338.938416,653.704407 
	C338.816833,653.280090 338.738403,653.119812 338.659973,652.959595 
	C338.662689,638.528259 338.665405,624.096985 338.714722,608.884338 
	C338.872681,604.133240 338.984039,600.163391 339.372253,596.266846 
	C340.354706,596.594482 341.060333,596.848877 341.765961,597.103271 
z"/>
<path fill="#495BB4" opacity="1.000000" stroke="none" 
	d="
M306.075623,717.762695 
	C305.936554,706.605713 305.813782,695.448364 305.648041,684.291748 
	C305.601044,681.128784 305.428497,677.967712 305.202057,674.400208 
	C305.332214,665.224487 305.612610,656.455139 305.799164,647.683777 
	C305.892792,643.280457 305.815521,638.873413 305.815521,633.402771 
	C313.110413,638.084290 319.479309,642.171509 325.714172,646.829529 
	C325.390625,649.192505 325.039154,650.984436 325.036255,652.776917 
	C324.998444,676.058838 325.040100,699.340942 324.951508,722.622559 
	C324.944519,724.457275 324.118500,726.288757 323.345154,728.059998 
	C317.369995,724.586426 311.722809,721.174561 306.075623,717.762695 
z"/>
<path fill="#5975D7" opacity="1.000000" stroke="none" 
	d="
M455.456329,314.062775 
	C449.039459,309.609192 442.622589,305.155609 436.028625,300.402405 
	C436.846619,298.988708 437.919952,297.934357 438.823761,296.750488 
	C443.894196,290.108948 443.309082,286.446259 436.535126,281.931854 
	C432.237946,279.068024 428.068420,275.988129 423.618256,273.387299 
	C420.849579,271.769226 419.536163,269.859497 419.605316,266.641754 
	C419.743744,260.201508 419.646423,253.756195 419.646423,246.296066 
	C426.821381,251.102829 433.247955,255.381805 439.646210,259.702759 
	C445.028778,263.337769 450.224915,267.279114 455.793823,270.597778 
	C459.833313,273.005035 461.878693,275.892853 461.191284,280.657135 
	C460.932800,282.448761 461.197815,284.315918 461.177979,287.033600 
	C459.239960,296.633301 457.348145,305.348053 455.456329,314.062775 
z"/>
<path fill="#484D92" opacity="1.000000" stroke="none" 
	d="
M323.673157,728.121765 
	C324.118500,726.288757 324.944519,724.457275 324.951508,722.622559 
	C325.040100,699.340942 324.998444,676.058838 325.036255,652.776917 
	C325.039154,650.984436 325.390625,649.192505 325.907043,647.110596 
	C329.517273,648.866150 332.800568,650.911499 336.599670,653.305298 
	C337.737549,653.758667 338.359528,653.863586 338.981537,653.968506 
	C338.981537,653.968506 338.985840,654.311646 339.004181,654.882080 
	C339.001709,683.007446 338.980896,710.562439 338.619873,738.035767 
	C333.410797,734.676636 328.541992,731.399231 323.673157,728.121765 
z"/>
<path fill="#56A750" opacity="1.000000" stroke="none" 
	d="
M561.747192,365.912170 
	C566.472900,368.334991 570.926514,371.121094 575.788086,374.397339 
	C576.174744,385.348022 578.450439,395.237701 583.824951,404.270844 
	C586.781860,409.240570 590.380737,413.515289 596.960510,413.357819 
	C597.612244,421.049011 598.263916,428.740234 598.911926,436.825256 
	C590.858032,437.279572 585.246216,432.610138 580.417175,427.066467 
	C570.014954,415.124817 564.541077,400.872833 561.848572,384.944458 
	C561.687744,378.405792 561.581421,372.340637 561.747192,365.912170 
z"/>
<path fill="#FBF7F5" opacity="1.000000" stroke="none" 
	d="
M341.820465,596.718689 
	C341.060333,596.848877 340.354706,596.594482 339.188416,595.969910 
	C327.816132,588.062439 316.904541,580.525146 305.992950,572.987854 
	C305.992950,565.455994 305.992950,557.924133 305.992950,548.695740 
	C321.331604,559.057129 335.291077,568.486816 349.594055,577.950928 
	C347.250092,584.101501 344.562531,590.217773 341.820465,596.718689 
z"/>
<path fill="#EDF1F7" opacity="1.000000" stroke="none" 
	d="
M305.989990,573.457764 
	C316.904541,580.525146 327.816132,588.062439 338.911560,595.896667 
	C338.984039,600.163391 338.872681,604.133240 338.652466,608.469116 
	C329.505310,610.533447 320.487030,612.351013 311.418732,613.870361 
	C307.876221,614.463806 305.883423,612.965881 305.944000,608.855530 
	C306.115662,597.215271 305.993469,585.570618 305.989990,573.457764 
z"/>
<path fill="#F05447" opacity="1.000000" stroke="none" 
	d="
M507.009460,349.031494 
	C504.955231,337.351440 503.811584,326.097687 507.746399,314.625183 
	C509.372467,311.951141 510.863800,309.596313 512.655884,307.091034 
	C516.417969,313.883911 519.879395,320.827271 523.582397,328.328125 
	C523.122070,332.547638 521.813782,336.218201 521.865234,339.869568 
	C521.936096,344.903320 523.033691,349.922607 523.691528,354.948090 
	C519.528625,356.584564 515.365723,358.221039 510.888092,359.947754 
	C509.412781,356.505676 508.252167,352.973358 507.009460,349.031494 
z"/>
<path fill="#495BB4" opacity="1.000000" stroke="none" 
	d="
M656.173584,392.259399 
	C662.011963,394.215607 663.098022,398.656494 662.984924,404.566010 
	C662.645630,422.299835 662.928467,440.045563 662.980347,458.223999 
	C661.789062,466.257629 660.719055,473.879150 659.286438,481.431885 
	C658.941589,483.249878 657.394348,484.839813 656.115540,486.726746 
	C655.913574,455.524292 655.996155,424.129761 656.173584,392.259399 
z"/>
<path fill="#F5EDEB" opacity="1.000000" stroke="none" 
	d="
M455.559418,314.410156 
	C457.348145,305.348053 459.239960,296.633301 461.243530,287.495911 
	C461.792603,287.995728 462.229889,288.918243 462.922363,290.034058 
	C460.470795,301.415131 462.411194,312.347687 464.984589,323.659058 
	C461.873169,320.967865 458.767822,317.862701 455.559418,314.410156 
z"/>
<path fill="#F5EDEB" opacity="1.000000" stroke="none" 
	d="
M464.342590,287.080566 
	C464.335815,287.936462 464.007080,288.870361 463.422485,289.974640 
	C463.451324,289.149536 463.735962,288.154022 464.342590,287.080566 
z"/>
<path fill="#EDF1F7" opacity="1.000000" stroke="none" 
	d="
M338.938416,653.704407 
	C338.359528,653.863586 337.737549,653.758667 336.926880,653.388550 
	C337.165283,653.075806 337.592316,653.028320 338.339661,652.970215 
	C338.738403,653.119812 338.816833,653.280090 338.938416,653.704407 
z"/>
<path fill="#F5EDEB" opacity="1.000000" stroke="none" 
	d="
M467.706604,283.093872 
	C467.871460,283.346893 467.709229,283.586700 467.198059,283.777710 
	C467.077820,283.537231 467.254669,283.321136 467.706604,283.093872 
z"/>
<path fill="#F5EDEB" opacity="1.000000" stroke="none" 
	d="
M465.665466,285.116486 
	C465.899750,285.350098 465.783783,285.642303 465.296021,285.968323 
	C465.082153,285.728271 465.212463,285.452606 465.665466,285.116486 
z"/>
<path fill="#EDE1E5" opacity="1.000000" stroke="none" 
	d="
M512.049316,604.948608 
	C514.966675,606.382263 518.045898,607.560425 520.775452,609.290344 
	C541.000854,622.109558 561.156799,635.038452 581.691162,647.961487 
	C582.227417,656.968994 582.560852,665.947815 582.561646,674.926697 
	C582.566833,736.413391 582.502747,797.900024 582.455322,859.386719 
	C582.454712,860.218750 582.381714,861.050842 582.085693,862.638733 
	C581.540039,864.268311 581.251160,865.142090 580.962341,866.015808 
	C580.962341,866.015808 580.476257,866.007996 580.085571,865.697510 
	C557.127258,849.918274 534.559509,834.449646 511.991791,818.981018 
	C511.830170,806.289062 511.693542,793.596680 511.497467,780.905212 
	C511.381012,773.369446 511.046631,765.835449 511.026306,758.300110 
	C510.963013,734.830505 511.002502,711.360657 511.002563,687.890869 
	C511.002625,669.658752 510.928986,651.426147 511.049164,633.194824 
	C511.085114,627.744446 511.663666,622.297729 511.992798,615.962402 
	C512.011108,611.699829 512.030212,608.324219 512.049316,604.948608 
z"/>
<path fill="#423C6C" opacity="1.000000" stroke="none" 
	d="
M338.960083,738.117371 
	C338.980896,710.562439 339.001709,683.007446 339.056854,655.045410 
	C359.813629,643.475098 380.530334,632.301147 401.267059,621.164429 
	C403.433533,620.000916 405.718414,619.057922 408.300507,617.997437 
	C408.674927,642.025269 408.707520,666.068359 408.691193,690.111450 
	C408.690308,691.395935 408.277344,692.680115 407.470490,694.384460 
	C401.363220,697.995789 395.776947,701.081787 390.347321,704.422485 
	C387.598480,706.113708 385.254181,706.459961 382.843750,703.684021 
	C382.504791,703.246765 382.238251,703.092712 381.959015,703.023438 
	C381.994873,703.024231 381.954803,703.083801 381.972260,702.608643 
	C381.989716,685.576904 381.989716,669.020447 381.989716,651.023743 
	C377.015442,652.923096 373.055847,654.279541 369.226105,655.936218 
	C364.324493,658.056580 361.979248,661.968872 362.001129,667.303711 
	C362.033813,675.277344 362.065063,683.251038 362.116821,691.678955 
	C362.228210,700.035583 362.319763,707.938049 362.321777,716.309448 
	C361.449097,720.547241 364.106201,724.982666 359.721069,728.176636 
	C357.932800,729.395935 356.458893,730.552979 354.604675,731.716675 
	C350.584869,733.603821 346.992371,735.585327 343.280243,737.309265 
	C341.992767,737.907227 340.408691,737.866455 338.960083,738.117371 
z"/>
<path fill="#DBC5CB" opacity="1.000000" stroke="none" 
	d="
M511.985107,819.451538 
	C534.559509,834.449646 557.127258,849.918274 579.842590,865.690857 
	C565.947998,873.528076 551.776367,880.833191 537.918579,888.692017 
	C531.104370,892.556335 520.344666,891.908264 515.079834,884.437683 
	C513.394836,882.046814 512.145508,878.778198 512.105347,875.891541 
	C511.845734,857.238098 511.976013,838.579163 511.985107,819.451538 
z"/>
<path fill="#E8D2D2" opacity="1.000000" stroke="none" 
	d="
M460.016357,733.981323 
	C464.543976,736.473877 469.071594,738.966431 473.794159,742.099487 
	C473.187653,744.121277 472.713654,745.960083 471.529968,746.807434 
	C465.358398,751.225281 459.023865,755.417175 452.709991,759.633667 
	C449.353210,761.875427 445.842102,762.632202 441.888184,760.949707 
	C440.692474,760.440979 438.665863,760.370361 437.714386,761.058777 
	C433.068329,764.420959 428.519531,767.950806 424.208801,771.731995 
	C421.038391,774.513000 418.496094,778.014771 415.301392,780.762207 
	C410.711761,784.709045 405.783325,788.261902 400.999512,791.982971 
	C395.466003,789.183228 389.932434,786.383484 384.329163,782.993896 
	C385.807037,780.760193 387.194977,778.919250 388.933624,777.511475 
	C393.280457,773.991821 397.839783,770.735291 402.204315,767.236450 
	C404.167847,765.662476 404.903107,763.764282 402.147919,762.097656 
	C398.770538,760.054749 395.378418,758.036316 391.691772,755.860046 
	C389.264313,754.471558 387.137756,753.230286 385.044189,751.628845 
	C385.751526,750.185852 386.169067,748.603821 387.142822,748.102905 
	C392.705780,745.241089 398.401031,742.636536 404.375977,739.955688 
	C405.133179,739.984192 405.565796,740.001709 406.198669,740.293274 
	C410.599060,742.715576 414.799286,744.863892 419.198425,747.285950 
	C422.412720,749.283142 425.327179,751.236511 428.489532,752.625305 
	C429.899933,753.244690 432.169373,753.352234 433.431641,752.623230 
	C440.145935,748.745483 446.762146,744.674438 453.202576,740.357300 
	C455.752625,738.648010 457.761230,736.130798 460.016357,733.981323 
z"/>
<path fill="#EEDEDF" opacity="1.000000" stroke="none" 
	d="
M401.198639,792.262573 
	C405.783325,788.261902 410.711761,784.709045 415.301392,780.762207 
	C418.496094,778.014771 421.038391,774.513000 424.208801,771.731995 
	C428.519531,767.950806 433.068329,764.420959 437.714386,761.058777 
	C438.665863,760.370361 440.692474,760.440979 441.888184,760.949707 
	C445.842102,762.632202 449.353210,761.875427 452.709991,759.633667 
	C459.023865,755.417175 465.358398,751.225281 471.529968,746.807434 
	C472.713654,745.960083 473.187653,744.121277 473.992706,742.371460 
	C478.523529,744.778564 483.098602,747.479858 487.562408,750.353882 
	C490.987061,752.558960 490.483704,754.864014 487.284332,756.842773 
	C474.333405,764.852783 461.337067,772.789673 448.411713,780.840637 
	C444.480103,783.289490 440.443939,785.690430 436.934662,788.676208 
	C422.975464,800.552795 417.192047,801.282349 401.198639,792.262573 
z"/>
<path fill="#F1DCA5" opacity="1.000000" stroke="none" 
	d="
M338.619843,738.035767 
	C340.408691,737.866455 341.992767,737.907227 343.280243,737.309265 
	C346.992371,735.585327 350.584869,733.603821 354.751953,732.027710 
	C357.518066,733.876160 359.756561,735.420288 362.003357,736.977295 
	C362.011658,736.990173 362.032379,737.012817 362.120056,737.241699 
	C362.398254,737.761047 362.664276,737.938354 363.003296,738.001221 
	C363.000824,738.000000 362.999115,737.994202 362.987244,738.419922 
	C363.228790,740.140991 363.476807,741.437378 363.736420,742.731445 
	C365.593079,751.987122 361.008972,759.593323 352.119720,761.741272 
	C349.454529,762.385254 346.684601,762.595764 343.962646,763.004822 
	C331.745819,760.131226 322.514709,751.534058 311.593109,746.208008 
	C306.743652,743.843079 305.491516,740.605225 305.862793,735.610413 
	C306.278870,730.013000 305.989227,724.363037 306.041138,718.249329 
	C311.722809,721.174561 317.369995,724.586426 323.345154,728.059998 
	C328.541992,731.399231 333.410797,734.676636 338.619843,738.035767 
z"/>
<path fill="#47323C" opacity="1.000000" stroke="none" 
	d="
M425.338379,588.067139 
	C420.367645,582.620544 419.033325,576.567444 421.046631,569.063904 
	C423.490509,562.243408 425.734070,556.147583 428.276367,549.875671 
	C429.467194,547.534607 430.325897,546.651123 432.949738,548.216370 
	C439.526123,552.139465 446.024506,550.094299 448.638916,542.898560 
	C450.534821,537.680298 451.307220,532.011292 452.189392,526.480957 
	C452.866638,522.235413 451.064148,518.743347 447.714447,515.999512 
	C443.745148,512.748108 439.869720,509.382202 436.034912,505.711365 
	C437.534454,502.596588 438.952637,499.836304 440.370789,497.076019 
	C441.891479,496.599854 443.412170,496.123688 444.498657,495.783478 
	C449.922058,500.898804 455.180542,505.858582 460.706360,511.326050 
	C457.234528,527.127441 453.495331,542.421143 449.512939,558.008423 
	C447.632141,564.145691 445.994507,569.989319 444.356873,575.833008 
	C443.352753,578.822998 442.317017,581.802734 441.350494,584.804810 
	C438.672394,593.122925 434.510834,594.506958 427.214661,589.466614 
	C426.668884,589.089539 426.172028,588.641724 425.338379,588.067139 
z"/>
<path fill="#EEDEDF" opacity="1.000000" stroke="none" 
	d="
M675.990234,841.012207 
	C682.061768,844.049805 688.164429,847.028259 694.167847,850.195068 
	C694.973633,850.620117 695.820862,852.100830 695.665222,852.901428 
	C695.502991,853.735474 694.248779,854.537048 693.301025,855.010193 
	C685.137268,859.086487 676.741577,862.739868 668.789001,867.187927 
	C656.802734,873.892029 645.063110,881.045410 633.340881,888.207886 
	C630.113098,890.180115 627.281006,890.429199 624.042786,888.546997 
	C619.880310,886.127686 615.617554,883.880859 611.504150,881.131104 
	C614.429932,878.984070 617.216003,877.207336 620.074951,875.557007 
	C636.350464,866.161804 652.690186,856.876282 668.884338,847.343201 
	C671.565979,845.764587 673.637024,843.148743 675.990234,841.012207 
z"/>
<path fill="#CB872A" opacity="1.000000" stroke="none" 
	d="
M382.964691,703.883301 
	C385.254181,706.459961 387.598480,706.113708 390.347321,704.422485 
	C395.776947,701.081787 401.363220,697.995789 407.220886,694.703613 
	C409.153198,697.636414 410.749298,700.669983 412.720520,704.286865 
	C415.410339,712.781738 414.609344,720.042053 408.184265,725.820923 
	C403.324341,730.191956 397.123535,730.738831 390.597900,731.056152 
	C388.539429,730.316284 386.720428,729.888611 385.160461,729.004089 
	C377.539490,724.683105 369.987610,720.240234 362.411285,715.840454 
	C362.319763,707.938049 362.228210,700.035583 362.453857,691.682922 
	C369.165619,695.183044 375.560211,699.133423 381.954803,703.083801 
	C381.954803,703.083801 381.994873,703.024231 382.054535,703.247131 
	C382.335907,703.735046 382.619415,703.872803 382.964691,703.883301 
z"/>
<path fill="#FBF7F5" opacity="1.000000" stroke="none" 
	d="
M444.818451,575.874146 
	C445.994507,569.989319 447.632141,564.145691 449.840088,558.213257 
	C453.608948,559.096313 456.807526,560.068054 460.010864,561.401550 
	C461.291565,563.149048 462.370392,564.814026 463.874786,565.876282 
	C475.632904,574.178894 487.386658,582.494080 499.336823,590.514648 
	C503.206573,593.111938 507.657440,594.843323 511.842468,596.970764 
	C511.898407,599.336670 511.954346,601.702576 512.029785,604.508545 
	C512.030212,608.324219 512.011108,611.699829 511.989685,615.532837 
	C510.034637,615.227112 507.857239,614.795837 506.164032,613.649414 
	C489.355469,602.268738 472.711304,590.642639 455.796600,579.423767 
	C452.823395,577.451721 448.811981,577.044983 444.818451,575.874146 
z"/>
<path fill="#E2C7C7" opacity="1.000000" stroke="none" 
	d="
M581.179688,866.281738 
	C581.251160,865.142090 581.540039,864.268311 581.992920,863.085449 
	C583.232910,862.598267 584.473938,862.707642 585.359680,862.198547 
	C597.291016,855.342773 609.188538,848.427490 621.039368,841.433655 
	C622.071106,840.824768 622.715149,839.558899 624.107178,838.296997 
	C629.707703,836.260132 634.947815,834.948975 639.694885,832.629028 
	C642.526733,831.245117 644.584839,828.278076 646.990845,826.022705 
	C651.866089,828.488281 656.741394,830.953857 661.780151,834.037659 
	C659.734436,836.547668 657.756226,838.841736 655.277710,840.264465 
	C641.503052,848.171204 627.567078,855.796509 613.771606,863.667786 
	C608.071716,866.919922 602.584167,870.544434 597.000000,873.999573 
	C591.799011,871.515564 586.598083,869.031616 581.179688,866.281738 
z"/>
<path fill="#E8D2D2" opacity="1.000000" stroke="none" 
	d="
M597.201782,874.275452 
	C602.584167,870.544434 608.071716,866.919922 613.771606,863.667786 
	C627.567078,855.796509 641.503052,848.171204 655.277710,840.264465 
	C657.756226,838.841736 659.734436,836.547668 661.991943,834.302734 
	C666.485229,836.202576 670.930298,838.455627 675.682800,840.860474 
	C673.637024,843.148743 671.565979,845.764587 668.884338,847.343201 
	C652.690186,856.876282 636.350464,866.161804 620.074951,875.557007 
	C617.216003,877.207336 614.429932,878.984070 611.302673,880.854858 
	C606.464600,878.855347 601.934143,876.703308 597.201782,874.275452 
z"/>
<path fill="#EDE1E5" opacity="1.000000" stroke="none" 
	d="
M624.270874,814.907349 
	C624.151367,806.909424 624.031921,798.911560 624.010986,790.453369 
	C625.743530,790.663696 627.559570,791.069763 628.982178,792.047913 
	C638.221313,798.400391 647.511536,804.695557 656.470764,811.427673 
	C659.054504,813.369080 660.605286,816.685120 662.629639,819.370972 
	C659.420349,820.246521 656.153076,821.994324 653.015930,821.785522 
	C648.708435,821.498840 644.521301,819.635437 640.236816,818.645874 
	C638.714111,818.294189 637.057495,818.522644 634.855530,818.723633 
	C630.923035,817.609802 627.596924,816.258606 624.270874,814.907349 
z"/>
<path fill="#E2C7C7" opacity="1.000000" stroke="none" 
	d="
M459.862000,733.678711 
	C457.761230,736.130798 455.752625,738.648010 453.202576,740.357300 
	C446.762146,744.674438 440.145935,748.745483 433.431641,752.623230 
	C432.169373,753.352234 429.899933,753.244690 428.489532,752.625305 
	C425.327179,751.236511 422.412720,749.283142 419.235291,746.935242 
	C420.916840,744.777710 422.671143,743.119080 424.619751,741.733704 
	C432.096100,736.418274 439.634796,731.190430 447.150208,725.929932 
	C451.336029,728.411987 455.521851,730.894043 459.862000,733.678711 
z"/>
<path fill="#D9B0AB" opacity="1.000000" stroke="none" 
	d="
M390.956787,731.157837 
	C397.123535,730.738831 403.324341,730.191956 408.184265,725.820923 
	C414.609344,720.042053 415.410339,712.781738 413.011414,704.465454 
	C419.193359,707.940247 425.459381,711.820068 431.725983,715.698853 
	C432.682343,716.290771 433.641388,716.878418 434.542053,717.914734 
	C430.858307,721.143921 427.242828,723.941040 423.602448,726.705383 
	C417.743042,731.154724 411.867279,735.582397 405.998413,740.019287 
	C405.565796,740.001709 405.133179,739.984192 404.206116,739.658325 
	C402.058105,738.358032 400.374847,737.411926 398.757751,736.363831 
	C396.134613,734.663696 393.554840,732.896667 390.956787,731.157837 
z"/>
<path fill="#DDBCBB" opacity="1.000000" stroke="none" 
	d="
M406.198639,740.293213 
	C411.867279,735.582397 417.743042,731.154724 423.602448,726.705383 
	C427.242828,723.941040 430.858307,721.143921 434.766602,718.170105 
	C438.950714,720.440552 442.853119,722.902283 446.952881,725.646973 
	C439.634796,731.190430 432.096100,736.418274 424.619751,741.733704 
	C422.671143,743.119080 420.916840,744.777710 419.036377,746.661499 
	C414.799286,744.863892 410.599060,742.715576 406.198639,740.293213 
z"/>
<path fill="#D9B0AB" opacity="1.000000" stroke="none" 
	d="
M344.177124,763.274292 
	C346.684601,762.595764 349.454529,762.385254 352.119720,761.741272 
	C361.008972,759.593323 365.593079,751.987122 363.736420,742.731445 
	C363.476807,741.437378 363.228790,740.140991 363.290100,738.568665 
	C370.065948,742.530762 376.527039,746.769836 382.954956,751.355774 
	C381.478882,753.203552 380.217041,754.952454 378.561157,756.161682 
	C372.079132,760.895325 365.472595,765.458374 358.912354,770.084839 
	C354.072113,767.904541 349.231873,765.724182 344.177124,763.274292 
z"/>
<path fill="#E2C7C7" opacity="1.000000" stroke="none" 
	d="
M391.992676,756.007324 
	C395.378418,758.036316 398.770538,760.054749 402.147919,762.097656 
	C404.903107,763.764282 404.167847,765.662476 402.204315,767.236450 
	C397.839783,770.735291 393.280457,773.991821 388.933624,777.511475 
	C387.194977,778.919250 385.807037,780.760193 384.122986,782.721680 
	C379.077850,780.588257 374.169159,778.137024 369.401001,775.234680 
	C375.935425,770.441101 382.446899,766.256714 388.643524,761.648926 
	C390.262909,760.444763 390.902893,757.923645 391.992676,756.007324 
z"/>
<path fill="#DDBCBB" opacity="1.000000" stroke="none" 
	d="
M624.140747,815.368164 
	C627.596924,816.258606 630.923035,817.609802 634.605347,819.015747 
	C638.744080,821.348450 642.526550,823.626404 646.649902,825.963562 
	C644.584839,828.278076 642.526733,831.245117 639.694885,832.629028 
	C634.947815,834.948975 629.707703,836.260132 624.246948,837.987183 
	C623.882690,830.595337 623.946655,823.212158 624.140747,815.368164 
z"/>
<path fill="#DDBCBB" opacity="1.000000" stroke="none" 
	d="
M391.691772,755.860046 
	C390.902893,757.923645 390.262909,760.444763 388.643524,761.648926 
	C382.446899,766.256714 375.935425,770.441101 369.218628,774.942566 
	C365.687988,773.623657 362.480225,772.145691 359.092407,770.376343 
	C365.472595,765.458374 372.079132,760.895325 378.561157,756.161682 
	C380.217041,754.952454 381.478882,753.203552 383.217590,751.458496 
	C384.012695,751.472595 384.511963,751.730835 385.011230,751.989014 
	C387.137756,753.230286 389.264313,754.471558 391.691772,755.860046 
z"/>
<path fill="#CCDEE8" opacity="1.000000" stroke="none" 
	d="
M468.124481,377.935760 
	C478.753937,398.143768 485.917816,419.606018 488.858612,442.157257 
	C490.521698,454.910400 490.217316,467.994690 489.841736,480.901978 
	C489.693604,485.992493 487.530670,491.296387 485.230865,495.986115 
	C482.077271,502.416901 476.875580,504.763123 470.251740,502.171875 
	C464.526031,499.931915 459.500549,495.901947 454.331299,492.228058 
	C455.997284,490.862762 457.497437,489.932617 459.312561,489.157166 
	C460.885986,490.111938 462.058014,491.125031 463.417328,491.676392 
	C470.562500,494.574402 480.422607,494.092957 482.732666,484.303070 
	C483.815918,479.712341 484.083405,474.799316 483.890381,470.066223 
	C483.563812,462.059875 482.397156,454.132874 475.240173,448.825714 
	C468.518524,443.841492 461.973358,438.568359 454.933289,434.076202 
	C443.725494,426.924591 435.930817,417.714050 432.467773,404.528473 
	C430.766083,398.049347 426.986023,392.088837 423.882996,386.028534 
	C423.280701,384.852234 421.458710,384.300476 420.199341,383.460632 
	C419.466797,384.781616 418.239441,386.057312 418.113556,387.433746 
	C417.906433,389.698212 418.368774,392.032837 418.626404,394.329193 
	C419.399109,401.217377 420.209351,408.101349 421.004944,414.986969 
	C418.774017,413.521454 416.543091,412.055969 414.156982,409.922791 
	C411.465149,398.474854 408.398376,387.785553 406.527954,376.890869 
	C404.261932,363.692230 402.978729,350.320404 406.109924,337.003326 
	C407.303040,337.997864 407.982910,339.149323 408.980164,339.847443 
	C414.650238,343.816956 417.515717,352.814941 427.038239,350.351624 
	C428.537231,353.512573 430.239655,354.349030 433.419189,352.623688 
	C434.625244,351.969208 437.843292,352.875153 438.696472,354.088165 
	C442.460785,359.440186 445.653015,365.191528 449.170044,370.723480 
	C449.734802,371.611847 450.842224,372.210541 451.793884,372.785858 
	C453.706238,373.941956 455.620483,375.130127 457.649536,376.050079 
	C460.957458,377.549957 463.853821,381.698425 468.124481,377.935760 
z"/>
<path fill="#CFE7F3" opacity="1.000000" stroke="none" 
	d="
M421.189453,415.275635 
	C420.209351,408.101349 419.399109,401.217377 418.626404,394.329193 
	C418.368774,392.032837 417.906433,389.698212 418.113556,387.433746 
	C418.239441,386.057312 419.466797,384.781616 420.199341,383.460632 
	C421.458710,384.300476 423.280701,384.852234 423.882996,386.028534 
	C426.986023,392.088837 430.766083,398.049347 432.467773,404.528473 
	C435.930817,417.714050 443.725494,426.924591 454.933289,434.076202 
	C461.973358,438.568359 468.518524,443.841492 475.240173,448.825714 
	C482.397156,454.132874 483.563812,462.059875 483.890381,470.066223 
	C484.083405,474.799316 483.815918,479.712341 482.732666,484.303070 
	C480.422607,494.092957 470.562500,494.574402 463.417328,491.676392 
	C462.058014,491.125031 460.885986,490.111938 459.175629,488.846710 
	C453.140656,480.259308 447.557587,472.137054 442.407959,464.010010 
	C443.507385,464.003845 444.173645,464.015594 444.839203,463.999115 
	C451.620544,463.831207 453.171875,461.961914 450.755676,455.847351 
	C448.452179,450.017914 445.638336,444.379578 442.855591,438.752777 
	C439.405670,431.776886 435.531738,430.806671 428.684448,434.801453 
	C427.385773,433.672516 426.361969,432.759369 425.338196,431.846191 
	C426.603882,425.789001 426.562347,420.050079 421.189453,415.275635 
z"/>
<path fill="#FDFBFA" opacity="1.000000" stroke="none" 
	d="
M440.291046,496.685425 
	C438.952637,499.836304 437.534454,502.596588 435.665344,505.723816 
	C433.141907,505.413147 431.069427,504.735474 428.833038,503.759735 
	C422.167969,499.258972 415.666809,495.056274 409.165649,490.853577 
	C409.037750,477.789948 408.909821,464.726288 408.647766,451.185303 
	C410.461700,449.169128 412.409821,447.630280 414.683960,446.000366 
	C423.237701,460.245453 431.571411,474.522980 439.567993,488.986908 
	C440.649689,490.943390 440.038574,493.835815 440.291046,496.685425 
z"/>
<path fill="#6D6F8A" opacity="1.000000" stroke="none" 
	d="
M405.743256,336.950928 
	C402.978729,350.320404 404.261932,363.692230 406.527954,376.890869 
	C408.398376,387.785553 411.465149,398.474854 413.951050,409.658386 
	C411.070679,408.901611 408.241119,407.741608 405.191254,406.322052 
	C403.670959,400.288116 402.366882,394.514679 401.071686,388.739227 
	C397.400757,372.370514 395.241760,355.875092 398.098511,339.155518 
	C399.147705,333.015167 401.542877,327.372467 408.496094,325.321198 
	C407.804169,329.441772 406.773712,333.196350 405.743256,336.950928 
z"/>
<path fill="#C8D8E3" opacity="1.000000" stroke="none" 
	d="
M441.974518,464.014801 
	C447.557587,472.137054 453.140656,480.259308 458.860657,488.692017 
	C457.497437,489.932617 455.997284,490.862762 454.171936,491.927246 
	C446.496094,482.123779 438.792999,472.421692 431.927063,462.159546 
	C427.810150,456.006287 425.001129,448.978027 421.306946,442.166931 
	C422.327484,438.780945 423.645386,435.571014 425.150757,432.103638 
	C426.361969,432.759369 427.385773,433.672516 428.694153,435.199799 
	C433.310669,445.214233 437.642578,454.614502 441.974518,464.014801 
z"/>
<path fill="#FFFFFF" opacity="1.000000" stroke="none" 
	d="
M511.884766,596.506348 
	C507.657440,594.843323 503.206573,593.111938 499.336823,590.514648 
	C487.386658,582.494080 475.632904,574.178894 463.874786,565.876282 
	C462.370392,564.814026 461.291565,563.149048 460.358643,561.312866 
	C468.704712,558.385315 473.014496,552.366760 475.860291,544.981812 
	C479.319183,536.005859 478.034515,527.126648 475.213348,518.293457 
	C479.631805,517.437927 484.050232,516.582336 488.703125,515.458191 
	C497.725464,511.523315 505.340332,506.504791 509.998291,497.209595 
	C510.990814,497.025330 511.410858,497.048920 511.830902,497.072510 
	C511.862946,530.062317 511.894989,563.052124 511.884766,596.506348 
z"/>
<path fill="#F5EDEB" opacity="1.000000" stroke="none" 
	d="
M511.888062,496.733521 
	C511.410858,497.048920 510.990814,497.025330 510.254150,496.987457 
	C510.193237,496.169586 510.449005,495.365997 510.882538,494.293030 
	C511.355316,494.813904 511.650269,495.604218 511.888062,496.733521 
z"/>
<path fill="#F5EDEB" opacity="1.000000" stroke="none" 
	d="
M464.902771,324.225037 
	C465.180634,324.358673 465.430054,324.742737 465.770325,325.344849 
	C465.532257,325.200378 465.203308,324.837921 464.902771,324.225037 
z"/>
<path fill="#C8D8E3" opacity="1.000000" stroke="none" 
	d="
M406.109924,337.003326 
	C406.773712,333.196350 407.804169,329.441772 408.856293,325.313721 
	C408.877960,324.940247 408.956512,324.950592 409.177307,324.851013 
	C409.679230,324.560150 409.836334,324.295288 409.869385,323.956848 
	C414.427643,321.247498 419.358826,321.802155 423.090424,324.631317 
	C431.346680,330.890991 440.123657,337.008087 446.642334,344.877991 
	C454.840302,354.775269 460.994354,366.365540 468.077423,377.580505 
	C463.853821,381.698425 460.957458,377.549957 457.649536,376.050079 
	C455.620483,375.130127 453.706238,373.941956 451.793884,372.785858 
	C450.842224,372.210541 449.734802,371.611847 449.170044,370.723480 
	C445.653015,365.191528 442.460785,359.440186 438.696472,354.088165 
	C437.843292,352.875153 434.625244,351.969208 433.419189,352.623688 
	C430.239655,354.349030 428.537231,353.512573 427.467224,350.351624 
	C431.631378,350.034119 435.645966,350.455688 435.983887,344.559601 
	C436.065826,343.681122 436.037933,343.153198 436.219177,342.710968 
	C437.949463,338.488190 436.164520,335.566742 432.479706,333.838287 
	C428.994080,332.203308 424.922516,332.002594 422.635742,335.428955 
	C420.255981,338.994720 422.987213,341.875641 425.768646,344.204865 
	C426.143707,344.518982 426.580231,344.759735 426.991577,345.447388 
	C426.996613,347.240204 426.998291,348.620087 427.000000,350.000000 
	C417.515717,352.814941 414.650238,343.816956 408.980164,339.847443 
	C407.982910,339.149323 407.303040,337.997864 406.109924,337.003326 
z"/>
<path fill="#E89576" opacity="1.000000" stroke="none" 
	d="
M474.855194,518.168457 
	C478.034515,527.126648 479.319183,536.005859 475.860291,544.981812 
	C473.014496,552.366760 468.704712,558.385315 460.353882,560.951050 
	C456.807526,560.068054 453.608948,559.096313 450.083252,557.919678 
	C453.495331,542.421143 457.234528,527.127441 461.031952,511.440002 
	C465.559143,513.378662 470.028076,515.711121 474.855194,518.168457 
z"/>
<path fill="#6D6F8A" opacity="1.000000" stroke="none" 
	d="
M409.664734,324.053589 
	C409.836334,324.295288 409.679230,324.560150 409.168762,324.812439 
	C409.027863,324.571106 409.201447,324.330078 409.664734,324.053589 
z"/>
<path fill="#FDFBFA" opacity="1.000000" stroke="none" 
	d="
M409.251282,561.941284 
	C408.888947,554.609009 408.872040,547.283997 409.208038,539.607971 
	C410.059326,539.468140 410.557739,539.679443 411.253479,540.163574 
	C415.977722,543.595276 420.504608,546.754150 424.989990,550.269714 
	C423.800629,551.673401 422.713226,552.797607 421.493500,553.752747 
	C418.014679,556.476807 414.481995,559.132019 410.970520,561.814331 
	C410.512573,561.859131 410.054688,561.903870 409.251282,561.941284 
z"/>
<path fill="#F5EDEB" opacity="1.000000" stroke="none" 
	d="
M411.281616,561.987549 
	C414.481995,559.132019 418.014679,556.476807 421.493500,553.752747 
	C422.713226,552.797607 423.800629,551.673401 425.358673,550.297485 
	C426.505127,549.996277 427.241394,550.024048 427.977661,550.051819 
	C425.734070,556.147583 423.490509,562.243408 421.068237,568.656616 
	C417.790558,566.702881 414.691620,564.431824 411.281616,561.987549 
z"/>
<path fill="#FDFBFA" opacity="1.000000" stroke="none" 
	d="
M648.051514,419.273682 
	C647.891785,423.690033 648.282471,427.784271 647.368835,431.563110 
	C646.067444,436.945526 641.589111,437.899689 638.320862,433.514343 
	C631.395508,424.221710 628.508850,413.630127 630.369202,402.113800 
	C630.703369,400.044861 632.902527,396.962341 634.547791,396.752136 
	C636.615723,396.487946 640.190002,398.143433 641.030579,399.943542 
	C643.858582,405.999878 645.762146,412.487854 648.051514,419.273682 
z"/>
<path fill="#EDC6A2" opacity="1.000000" stroke="none" 
	d="
M411.056122,539.890686 
	C410.557739,539.679443 410.059326,539.468140 409.309631,539.151123 
	C407.998108,529.396667 406.937927,519.747986 405.907104,509.661865 
	C406.978668,503.408630 408.020874,497.592804 409.114380,491.315247 
	C415.666809,495.056274 422.167969,499.258972 428.779236,504.102295 
	C427.943024,505.313171 427.048950,506.006073 426.042358,506.434723 
	C415.651855,510.859436 410.195984,518.399048 410.901917,529.979309 
	C411.102722,533.273987 411.012756,536.586426 411.056122,539.890686 
z"/>
<path fill="#FDFBFA" opacity="1.000000" stroke="none" 
	d="
M523.858032,355.291382 
	C523.033691,349.922607 521.936096,344.903320 521.865234,339.869568 
	C521.813782,336.218201 523.122070,332.547638 523.876770,328.519684 
	C528.010315,325.779877 531.743713,326.479248 534.663879,329.964874 
	C543.802979,340.873566 547.743835,353.411804 545.008667,367.511108 
	C543.664795,374.438477 537.445251,376.318237 532.935303,370.949066 
	C529.192505,366.493164 526.938232,360.786957 523.858032,355.291382 
z"/>
<path fill="#FDFBFA" opacity="1.000000" stroke="none" 
	d="
M597.244019,413.111511 
	C590.380737,413.515289 586.781860,409.240570 583.824951,404.270844 
	C578.450439,395.237701 576.174744,385.348022 576.139893,374.451538 
	C577.095886,372.124390 577.780273,369.928772 579.191772,368.408264 
	C581.775757,365.624847 584.961670,366.303497 587.855835,368.071625 
	C599.287476,375.055450 605.020386,401.757324 597.244019,413.111511 
z"/>
<path fill="#FDFBFA" opacity="1.000000" stroke="none" 
	d="
M491.664948,311.448547 
	C495.095856,319.243225 496.864655,327.030365 495.623138,335.114624 
	C495.248352,337.555145 493.467957,341.036774 491.573792,341.632446 
	C489.691162,342.224487 486.099182,340.414703 484.566895,338.569946 
	C477.359497,329.892761 474.285156,319.599579 475.206146,308.413208 
	C475.414612,305.881195 477.514191,302.211731 479.582001,301.498901 
	C481.548523,300.820984 484.991211,302.860992 487.083191,304.566589 
	C489.035370,306.158234 490.064911,308.881500 491.664948,311.448547 
z"/>
<path fill="#302F60" opacity="1.000000" stroke="none" 
	d="
M381.972260,702.608643 
	C375.560211,699.133423 369.165619,695.183044 362.433960,691.228638 
	C362.065063,683.251038 362.033813,675.277344 362.001129,667.303711 
	C361.979248,661.968872 364.324493,658.056580 369.226105,655.936218 
	C373.055847,654.279541 377.015442,652.923096 381.989716,651.023743 
	C381.989716,669.020447 381.989716,685.576904 381.972260,702.608643 
z"/>
<path fill="#E2C7C7" opacity="1.000000" stroke="none" 
	d="
M385.044189,751.628845 
	C384.511963,751.730835 384.012695,751.472595 383.250793,751.111694 
	C376.527039,746.769836 370.065948,742.530762 363.301971,738.142944 
	C362.999115,737.994202 363.000824,738.000000 362.908569,737.776855 
	C362.630646,737.263733 362.369354,737.083435 362.032379,737.012817 
	C362.032379,737.012817 362.011658,736.990173 361.982361,736.601929 
	C361.313873,733.513916 360.674622,730.814087 360.035400,728.114258 
	C364.106201,724.982666 361.449097,720.547241 362.321777,716.309448 
	C369.987610,720.240234 377.539490,724.683105 385.160461,729.004089 
	C386.720428,729.888611 388.539429,730.316284 390.597900,731.056152 
	C393.554840,732.896667 396.134613,734.663696 398.757751,736.363831 
	C400.374847,737.411926 402.058105,738.358032 403.881531,739.647278 
	C398.401031,742.636536 392.705780,745.241089 387.142822,748.102905 
	C386.169067,748.603821 385.751526,750.185852 385.044189,751.628845 
z"/>
<path fill="#D9B0AB" opacity="1.000000" stroke="none" 
	d="
M359.721069,728.176636 
	C360.674622,730.814087 361.313873,733.513916 361.974060,736.589111 
	C359.756561,735.420288 357.518066,733.876160 355.132294,732.020996 
	C356.458893,730.552979 357.932800,729.395935 359.721069,728.176636 
z"/>
<path fill="#302F60" opacity="1.000000" stroke="none" 
	d="
M382.843750,703.684021 
	C382.619415,703.872803 382.335907,703.735046 382.018677,703.246338 
	C382.238251,703.092712 382.504791,703.246765 382.843750,703.684021 
z"/>
<path fill="#D9B0AB" opacity="1.000000" stroke="none" 
	d="
M362.120056,737.241699 
	C362.369354,737.083435 362.630646,737.263733 362.911011,737.778076 
	C362.664276,737.938354 362.398254,737.761047 362.120056,737.241699 
z"/>
<path fill="#EA9474" opacity="1.000000" stroke="none" 
	d="
M411.253479,540.163574 
	C411.012756,536.586426 411.102722,533.273987 410.901917,529.979309 
	C410.195984,518.399048 415.651855,510.859436 426.042358,506.434723 
	C427.048950,506.006073 427.943024,505.313171 428.943115,504.400391 
	C431.069427,504.735474 433.141907,505.413147 435.583984,506.078369 
	C439.869720,509.382202 443.745148,512.748108 447.714447,515.999512 
	C451.064148,518.743347 452.866638,522.235413 452.189392,526.480957 
	C451.307220,532.011292 450.534821,537.680298 448.638916,542.898560 
	C446.024506,550.094299 439.526123,552.139465 432.949738,548.216370 
	C430.325897,546.651123 429.467194,547.534607 428.276367,549.875671 
	C427.241394,550.024048 426.505127,549.996277 425.400146,549.940796 
	C420.504608,546.754150 415.977722,543.595276 411.253479,540.163574 
z"/>
<path fill="#EDF1F7" opacity="1.000000" stroke="none" 
	d="
M442.407959,464.010010 
	C437.642578,454.614502 433.310669,445.214233 428.969055,435.415588 
	C435.531738,430.806671 439.405670,431.776886 442.855591,438.752777 
	C445.638336,444.379578 448.452179,450.017914 450.755676,455.847351 
	C453.171875,461.961914 451.620544,463.831207 444.839203,463.999115 
	C444.173645,464.015594 443.507385,464.003845 442.407959,464.010010 
z"/>
<path fill="#EDF1F7" opacity="1.000000" stroke="none" 
	d="
M426.988281,345.034454 
	C426.580231,344.759735 426.143707,344.518982 425.768646,344.204865 
	C422.987213,341.875641 420.255981,338.994720 422.635742,335.428955 
	C424.922516,332.002594 428.994080,332.203308 432.479706,333.838287 
	C436.164520,335.566742 437.949463,338.488190 436.219177,342.710968 
	C436.037933,343.153198 436.065826,343.681122 435.632507,344.613708 
	C432.501038,347.598175 429.743134,346.849640 426.988281,345.034454 
z"/>
<path fill="#CCDEE8" opacity="1.000000" stroke="none" 
	d="
M426.991577,345.447388 
	C429.743134,346.849640 432.501038,347.598175 435.619659,345.004028 
	C435.645966,350.455688 431.631378,350.034119 427.428955,350.000000 
	C426.998291,348.620087 426.996613,347.240204 426.991577,345.447388 
z"/>
</svg>